<?xml version="1.0" encoding="UTF-8"?>
<svg xmlns="http://www.w3.org/2000/svg" xmlns:xlink="http://www.w3.org/1999/xlink" width="1920" height="1080" viewBox="0 0 1920 1080">
<defs>
<g>
<g id="glyph-0-0">
<path d="M 1.34375 1.828125 L 1.34375 -5.875 L 0.875 -5.875 L 0.875 1.828125 Z "/>
</g>
<g id="glyph-0-1">
<path d="M 2.203125 0.046875 L 3.515625 -3.140625 C 3.6875 -3.578125 3.828125 -3.703125 4.140625 -3.703125 L 4.140625 -3.9375 L 2.6875 -3.9375 L 2.6875 -3.703125 C 2.984375 -3.703125 3.171875 -3.65625 3.171875 -3.46875 C 3.171875 -3.34375 3.109375 -3.234375 3.109375 -3.203125 L 2.390625 -1.3125 L 2.21875 -0.8125 L 2.171875 -0.8125 L 2 -1.3125 L 1.296875 -3.171875 C 1.25 -3.28125 1.21875 -3.375 1.21875 -3.484375 C 1.21875 -3.625 1.328125 -3.703125 1.65625 -3.703125 L 1.65625 -3.9375 L -0.109375 -3.9375 L -0.109375 -3.703125 C 0.25 -3.703125 0.34375 -3.609375 0.5625 -3.09375 L 1.8125 0.046875 Z "/>
</g>
<g id="glyph-0-2">
</g>
<g id="glyph-0-3">
<path d="M 5.484375 -2.84375 L 5.484375 -3.421875 L 0.515625 -3.421875 L 0.515625 -2.84375 Z M 5.484375 -0.875 L 5.484375 -1.4375 L 0.515625 -1.4375 L 0.515625 -0.875 Z "/>
</g>
<g id="glyph-0-4">
<path d="M 1.421875 0.109375 C 2.640625 0.109375 3.703125 -0.46875 3.703125 -1.609375 C 3.703125 -2.359375 3.140625 -2.796875 2.46875 -3 L 2.46875 -3.03125 C 3 -3.359375 3.375 -3.671875 3.375 -4.25 C 3.375 -4.875 2.875 -5.359375 2.03125 -5.359375 C 1.34375 -5.359375 0.828125 -4.984375 0.53125 -4.25 L 0.71875 -4.140625 C 1 -4.59375 1.3125 -4.828125 1.8125 -4.828125 C 2.328125 -4.828125 2.65625 -4.53125 2.65625 -4.046875 C 2.65625 -3.375 2.0625 -2.921875 1.5 -2.921875 L 1.34375 -2.921875 L 1.34375 -2.59375 L 1.5 -2.59375 C 2.3125 -2.59375 3.015625 -2.109375 3.015625 -1.359375 C 3.015625 -0.546875 2.5 -0.3125 1.984375 -0.3125 C 1.5625 -0.3125 1.15625 -0.71875 0.8125 -0.71875 C 0.59375 -0.71875 0.484375 -0.53125 0.484375 -0.34375 C 0.484375 -0.140625 0.671875 0.109375 1.421875 0.109375 Z "/>
</g>
</g>
</defs>
<g fill="rgb(19.215686%, 87.843137%, 68.627451%)" fill-opacity="1">
<use xlink:href="#glyph-0-0" x="30" y="26.349609"/>
<use xlink:href="#glyph-0-1" x="32" y="26.349609"/>
<use xlink:href="#glyph-0-0" x="36" y="26.349609"/>
<use xlink:href="#glyph-0-2" x="38" y="26.349609"/>
<use xlink:href="#glyph-0-3" x="40" y="26.349609"/>
<use xlink:href="#glyph-0-2" x="46" y="26.349609"/>
<use xlink:href="#glyph-0-4" x="48" y="26.349609"/>
</g>
</svg>
