<?xml version="1.0" encoding="UTF-8"?>
<svg xmlns="http://www.w3.org/2000/svg" xmlns:xlink="http://www.w3.org/1999/xlink" width="1920" height="1080" viewBox="0 0 1920 1080">
<defs>
<g>
<g id="glyph-0-0">
<path d="M 1.640625 0.0625 C 1.441406 0.0625 1.25 0.046875 1.0625 0.015625 C 0.875 -0.015625 0.691406 -0.0664062 0.515625 -0.140625 L 0.671875 -0.953125 C 0.835938 -0.878906 1.023438 -0.8125 1.234375 -0.75 C 1.441406 -0.695312 1.664062 -0.671875 1.90625 -0.671875 C 2.0625 -0.671875 2.1875 -0.691406 2.28125 -0.734375 C 2.375 -0.773438 2.429688 -0.835938 2.453125 -0.921875 C 2.460938 -1.003906 2.441406 -1.066406 2.390625 -1.109375 C 2.335938 -1.160156 2.257812 -1.207031 2.15625 -1.25 C 2.050781 -1.300781 1.914062 -1.359375 1.75 -1.421875 C 1.59375 -1.492188 1.445312 -1.566406 1.3125 -1.640625 C 1.1875 -1.722656 1.09375 -1.820312 1.03125 -1.9375 C 0.96875 -2.0625 0.957031 -2.222656 1 -2.421875 C 1.039062 -2.648438 1.132812 -2.835938 1.28125 -2.984375 C 1.425781 -3.128906 1.601562 -3.234375 1.8125 -3.296875 C 2.03125 -3.359375 2.273438 -3.390625 2.546875 -3.390625 C 2.765625 -3.390625 2.976562 -3.367188 3.1875 -3.328125 C 3.40625 -3.285156 3.609375 -3.222656 3.796875 -3.140625 L 3.375 -2.453125 C 3.207031 -2.523438 3.039062 -2.578125 2.875 -2.609375 C 2.71875 -2.648438 2.550781 -2.671875 2.375 -2.671875 C 2.238281 -2.671875 2.128906 -2.65625 2.046875 -2.625 C 1.972656 -2.59375 1.925781 -2.535156 1.90625 -2.453125 C 1.894531 -2.378906 1.910156 -2.316406 1.953125 -2.265625 C 2.003906 -2.222656 2.082031 -2.179688 2.1875 -2.140625 C 2.289062 -2.097656 2.414062 -2.050781 2.5625 -2 C 2.71875 -1.9375 2.863281 -1.863281 3 -1.78125 C 3.144531 -1.695312 3.25 -1.585938 3.3125 -1.453125 C 3.382812 -1.328125 3.398438 -1.148438 3.359375 -0.921875 C 3.304688 -0.691406 3.207031 -0.503906 3.0625 -0.359375 C 2.925781 -0.210938 2.738281 -0.101562 2.5 -0.03125 C 2.257812 0.03125 1.972656 0.0625 1.640625 0.0625 Z "/>
</g>
<g id="glyph-0-1">
<path d="M 2.375 0.0625 C 2.09375 0.0625 1.859375 0.0195312 1.671875 -0.0625 C 1.492188 -0.144531 1.375 -0.273438 1.3125 -0.453125 C 1.257812 -0.628906 1.265625 -0.863281 1.328125 -1.15625 L 1.609375 -2.609375 L 0.84375 -2.609375 L 0.953125 -3.15625 L 1.828125 -3.328125 L 2.125 -4.171875 L 2.796875 -4.171875 L 2.640625 -3.328125 L 3.890625 -3.328125 L 3.734375 -2.609375 L 2.484375 -2.609375 L 2.21875 -1.234375 C 2.1875 -1.078125 2.1875 -0.957031 2.21875 -0.875 C 2.257812 -0.800781 2.320312 -0.75 2.40625 -0.71875 C 2.5 -0.6875 2.597656 -0.671875 2.703125 -0.671875 C 2.796875 -0.671875 2.894531 -0.679688 3 -0.703125 C 3.101562 -0.722656 3.238281 -0.742188 3.40625 -0.765625 L 3.265625 -0.078125 C 3.109375 -0.0234375 2.953125 0.0078125 2.796875 0.03125 C 2.648438 0.0507812 2.507812 0.0625 2.375 0.0625 Z "/>
</g>
<g id="glyph-0-2">
<path d="M 0.25 0 L 0.359375 -0.546875 L 1.265625 -0.734375 L 1.640625 -2.609375 L 0.96875 -2.703125 L 1.09375 -3.328125 L 2.46875 -3.328125 L 2.484375 -2.78125 L 2.53125 -2.78125 C 2.664062 -2.96875 2.820312 -3.113281 3 -3.21875 C 3.1875 -3.332031 3.40625 -3.390625 3.65625 -3.390625 C 3.71875 -3.390625 3.800781 -3.382812 3.90625 -3.375 C 4.019531 -3.363281 4.125 -3.335938 4.21875 -3.296875 L 3.828125 -2.46875 C 3.765625 -2.488281 3.691406 -2.503906 3.609375 -2.515625 C 3.535156 -2.535156 3.453125 -2.546875 3.359375 -2.546875 C 3.171875 -2.546875 3.003906 -2.503906 2.859375 -2.421875 C 2.710938 -2.335938 2.59375 -2.222656 2.5 -2.078125 C 2.414062 -1.941406 2.351562 -1.78125 2.3125 -1.59375 L 2.140625 -0.734375 L 2.984375 -0.546875 L 2.875 0 Z "/>
</g>
<g id="glyph-0-3">
<path d="M 1.34375 0.0625 C 1 0.0625 0.753906 -0.03125 0.609375 -0.21875 C 0.472656 -0.40625 0.4375 -0.65625 0.5 -0.96875 C 0.550781 -1.21875 0.644531 -1.421875 0.78125 -1.578125 C 0.914062 -1.734375 1.09375 -1.847656 1.3125 -1.921875 C 1.539062 -2.003906 1.800781 -2.050781 2.09375 -2.0625 L 2.84375 -2.078125 L 2.859375 -2.21875 C 2.890625 -2.375 2.859375 -2.488281 2.765625 -2.5625 C 2.671875 -2.644531 2.515625 -2.6875 2.296875 -2.6875 C 2.148438 -2.6875 1.992188 -2.671875 1.828125 -2.640625 C 1.660156 -2.609375 1.484375 -2.554688 1.296875 -2.484375 L 1.125 -3.109375 C 1.34375 -3.203125 1.5625 -3.269531 1.78125 -3.3125 C 2 -3.363281 2.226562 -3.390625 2.46875 -3.390625 C 2.9375 -3.390625 3.28125 -3.289062 3.5 -3.09375 C 3.71875 -2.90625 3.785156 -2.613281 3.703125 -2.21875 L 3.265625 0 L 2.59375 0 L 2.53125 -0.421875 L 2.515625 -0.421875 C 2.390625 -0.304688 2.257812 -0.210938 2.125 -0.140625 C 2 -0.0664062 1.867188 -0.015625 1.734375 0.015625 C 1.609375 0.046875 1.476562 0.0625 1.34375 0.0625 Z M 1.796875 -0.640625 C 1.929688 -0.640625 2.0625 -0.660156 2.1875 -0.703125 C 2.3125 -0.753906 2.414062 -0.828125 2.5 -0.921875 C 2.59375 -1.023438 2.648438 -1.140625 2.671875 -1.265625 L 2.734375 -1.546875 L 2.234375 -1.53125 C 2.066406 -1.53125 1.921875 -1.507812 1.796875 -1.46875 C 1.679688 -1.4375 1.585938 -1.382812 1.515625 -1.3125 C 1.441406 -1.238281 1.394531 -1.148438 1.375 -1.046875 C 1.351562 -0.898438 1.378906 -0.796875 1.453125 -0.734375 C 1.535156 -0.671875 1.648438 -0.640625 1.796875 -0.640625 Z "/>
</g>
<g id="glyph-0-4">
<path d="M 0.359375 0 L 0.46875 -0.546875 L 1.625 -0.734375 L 2 -2.609375 L 1.078125 -2.703125 L 1.203125 -3.328125 L 3.03125 -3.328125 L 2.5 -0.734375 L 3.46875 -0.546875 L 3.359375 0 Z M 2.671875 -3.71875 C 2.492188 -3.71875 2.367188 -3.757812 2.296875 -3.84375 C 2.222656 -3.925781 2.203125 -4.054688 2.234375 -4.234375 C 2.265625 -4.398438 2.332031 -4.523438 2.4375 -4.609375 C 2.550781 -4.691406 2.703125 -4.734375 2.890625 -4.734375 C 3.066406 -4.734375 3.1875 -4.691406 3.25 -4.609375 C 3.320312 -4.523438 3.34375 -4.398438 3.3125 -4.234375 C 3.28125 -4.066406 3.210938 -3.9375 3.109375 -3.84375 C 3.003906 -3.757812 2.859375 -3.71875 2.671875 -3.71875 Z "/>
</g>
<g id="glyph-0-5">
<path d="M 1.296875 1.5 C 1.117188 1.5 0.9375 1.484375 0.75 1.453125 C 0.570312 1.421875 0.394531 1.367188 0.21875 1.296875 L 0.390625 0.46875 C 0.566406 0.550781 0.75 0.613281 0.9375 0.65625 C 1.132812 0.707031 1.328125 0.734375 1.515625 0.734375 C 1.785156 0.722656 1.992188 0.660156 2.140625 0.546875 C 2.285156 0.441406 2.378906 0.273438 2.421875 0.046875 L 2.4375 -0.03125 C 2.457031 -0.09375 2.472656 -0.15625 2.484375 -0.21875 C 2.503906 -0.289062 2.523438 -0.351562 2.546875 -0.40625 L 2.515625 -0.40625 C 2.367188 -0.25 2.207031 -0.128906 2.03125 -0.046875 C 1.863281 0.0234375 1.6875 0.0625 1.5 0.0625 C 1.101562 0.0625 0.820312 -0.0859375 0.65625 -0.390625 C 0.5 -0.703125 0.472656 -1.128906 0.578125 -1.671875 C 0.691406 -2.210938 0.890625 -2.632812 1.171875 -2.9375 C 1.453125 -3.25 1.789062 -3.40625 2.1875 -3.40625 C 2.394531 -3.40625 2.566406 -3.363281 2.703125 -3.28125 C 2.835938 -3.195312 2.945312 -3.070312 3.03125 -2.90625 L 3.046875 -2.90625 L 3.328125 -3.328125 L 4 -3.328125 L 3.328125 0 C 3.265625 0.320312 3.144531 0.59375 2.96875 0.8125 C 2.800781 1.039062 2.578125 1.210938 2.296875 1.328125 C 2.023438 1.441406 1.691406 1.5 1.296875 1.5 Z M 1.984375 -0.671875 C 2.097656 -0.671875 2.195312 -0.691406 2.28125 -0.734375 C 2.375 -0.773438 2.453125 -0.832031 2.515625 -0.90625 C 2.585938 -0.976562 2.644531 -1.066406 2.6875 -1.171875 C 2.738281 -1.285156 2.78125 -1.410156 2.8125 -1.546875 L 2.828125 -1.65625 C 2.878906 -1.894531 2.894531 -2.085938 2.875 -2.234375 C 2.851562 -2.378906 2.800781 -2.484375 2.71875 -2.546875 C 2.632812 -2.617188 2.515625 -2.65625 2.359375 -2.65625 C 2.117188 -2.65625 1.925781 -2.566406 1.78125 -2.390625 C 1.632812 -2.222656 1.53125 -1.984375 1.46875 -1.671875 C 1.40625 -1.347656 1.414062 -1.097656 1.5 -0.921875 C 1.582031 -0.753906 1.742188 -0.671875 1.984375 -0.671875 Z "/>
</g>
<g id="glyph-0-6">
<path d="M 0.34375 0 L 1.265625 -4.640625 L 2.140625 -4.640625 L 1.953125 -3.703125 C 1.929688 -3.566406 1.90625 -3.429688 1.875 -3.296875 C 1.851562 -3.171875 1.820312 -3.039062 1.78125 -2.90625 L 1.828125 -2.90625 C 1.921875 -3.007812 2.015625 -3.097656 2.109375 -3.171875 C 2.210938 -3.242188 2.328125 -3.296875 2.453125 -3.328125 C 2.578125 -3.367188 2.71875 -3.390625 2.875 -3.390625 C 3.25 -3.390625 3.515625 -3.285156 3.671875 -3.078125 C 3.828125 -2.867188 3.867188 -2.566406 3.796875 -2.171875 L 3.359375 0 L 2.46875 0 L 2.859375 -1.953125 C 2.910156 -2.222656 2.894531 -2.40625 2.8125 -2.5 C 2.738281 -2.601562 2.613281 -2.65625 2.4375 -2.65625 C 2.28125 -2.65625 2.144531 -2.617188 2.03125 -2.546875 C 1.914062 -2.472656 1.816406 -2.351562 1.734375 -2.1875 C 1.648438 -2.03125 1.582031 -1.820312 1.53125 -1.5625 L 1.21875 0 Z "/>
</g>
<g id="glyph-0-7">
</g>
<g id="glyph-0-8">
<path d="M 2.0625 0.0625 C 1.6875 0.0625 1.390625 0 1.171875 -0.125 C 0.953125 -0.25 0.804688 -0.4375 0.734375 -0.6875 C 0.671875 -0.9375 0.675781 -1.25 0.75 -1.625 C 0.820312 -2.007812 0.945312 -2.332031 1.125 -2.59375 C 1.300781 -2.863281 1.523438 -3.0625 1.796875 -3.1875 C 2.078125 -3.320312 2.40625 -3.390625 2.78125 -3.390625 C 2.945312 -3.390625 3.117188 -3.375 3.296875 -3.34375 C 3.484375 -3.320312 3.65625 -3.269531 3.8125 -3.1875 L 3.421875 -2.484375 C 3.265625 -2.546875 3.117188 -2.585938 2.984375 -2.609375 C 2.859375 -2.628906 2.757812 -2.640625 2.6875 -2.640625 C 2.5 -2.640625 2.335938 -2.601562 2.203125 -2.53125 C 2.066406 -2.457031 1.953125 -2.347656 1.859375 -2.203125 C 1.765625 -2.054688 1.695312 -1.875 1.65625 -1.65625 C 1.613281 -1.425781 1.609375 -1.238281 1.640625 -1.09375 C 1.671875 -0.957031 1.742188 -0.851562 1.859375 -0.78125 C 1.972656 -0.71875 2.117188 -0.6875 2.296875 -0.6875 C 2.429688 -0.6875 2.578125 -0.707031 2.734375 -0.75 C 2.890625 -0.789062 3.066406 -0.863281 3.265625 -0.96875 L 3.109375 -0.171875 C 2.910156 -0.078125 2.726562 -0.015625 2.5625 0.015625 C 2.394531 0.046875 2.226562 0.0625 2.0625 0.0625 Z "/>
</g>
<g id="glyph-0-9">
<path d="M 1.8125 0.0625 C 1.5625 0.0625 1.347656 0.0195312 1.171875 -0.0625 C 0.992188 -0.144531 0.847656 -0.257812 0.734375 -0.40625 C 0.628906 -0.5625 0.5625 -0.742188 0.53125 -0.953125 C 0.507812 -1.160156 0.523438 -1.394531 0.578125 -1.65625 C 0.648438 -2.007812 0.773438 -2.316406 0.953125 -2.578125 C 1.128906 -2.835938 1.347656 -3.035156 1.609375 -3.171875 C 1.878906 -3.316406 2.179688 -3.390625 2.515625 -3.390625 C 2.835938 -3.390625 3.101562 -3.320312 3.3125 -3.1875 C 3.519531 -3.050781 3.660156 -2.851562 3.734375 -2.59375 C 3.816406 -2.34375 3.820312 -2.035156 3.75 -1.671875 C 3.695312 -1.410156 3.613281 -1.171875 3.5 -0.953125 C 3.394531 -0.742188 3.257812 -0.5625 3.09375 -0.40625 C 2.925781 -0.257812 2.734375 -0.144531 2.515625 -0.0625 C 2.304688 0.0195312 2.070312 0.0625 1.8125 0.0625 Z M 1.96875 -0.65625 C 2.125 -0.65625 2.257812 -0.691406 2.375 -0.765625 C 2.488281 -0.847656 2.582031 -0.96875 2.65625 -1.125 C 2.738281 -1.28125 2.800781 -1.460938 2.84375 -1.671875 C 2.882812 -1.867188 2.898438 -2.046875 2.890625 -2.203125 C 2.878906 -2.359375 2.828125 -2.476562 2.734375 -2.5625 C 2.648438 -2.644531 2.53125 -2.6875 2.375 -2.6875 C 2.132812 -2.6875 1.9375 -2.59375 1.78125 -2.40625 C 1.632812 -2.226562 1.53125 -1.984375 1.46875 -1.671875 C 1.425781 -1.460938 1.414062 -1.28125 1.4375 -1.125 C 1.46875 -0.976562 1.523438 -0.863281 1.609375 -0.78125 C 1.691406 -0.695312 1.8125 -0.65625 1.96875 -0.65625 Z "/>
</g>
<g id="glyph-0-10">
<path d="M 0.1875 0 L 0.859375 -3.328125 L 1.453125 -3.328125 L 1.453125 -2.921875 L 1.5 -2.921875 C 1.5625 -3.023438 1.628906 -3.113281 1.703125 -3.1875 C 1.773438 -3.257812 1.851562 -3.3125 1.9375 -3.34375 C 2.019531 -3.375 2.113281 -3.390625 2.21875 -3.390625 C 2.394531 -3.390625 2.519531 -3.34375 2.59375 -3.25 C 2.675781 -3.15625 2.710938 -3.019531 2.703125 -2.84375 L 2.734375 -2.84375 C 2.847656 -3.019531 2.960938 -3.15625 3.078125 -3.25 C 3.203125 -3.34375 3.351562 -3.390625 3.53125 -3.390625 C 3.695312 -3.390625 3.816406 -3.34375 3.890625 -3.25 C 3.972656 -3.164062 4.007812 -3.03125 4 -2.84375 C 4 -2.664062 3.972656 -2.441406 3.921875 -2.171875 L 3.484375 0 L 2.71875 0 L 3.1875 -2.34375 C 3.195312 -2.414062 3.203125 -2.472656 3.203125 -2.515625 C 3.203125 -2.566406 3.1875 -2.601562 3.15625 -2.625 C 3.132812 -2.644531 3.09375 -2.65625 3.03125 -2.65625 C 2.957031 -2.65625 2.894531 -2.640625 2.84375 -2.609375 C 2.800781 -2.578125 2.765625 -2.523438 2.734375 -2.453125 C 2.703125 -2.378906 2.675781 -2.28125 2.65625 -2.15625 L 2.21875 0 L 1.453125 0 L 1.921875 -2.34375 C 1.929688 -2.414062 1.929688 -2.472656 1.921875 -2.515625 C 1.921875 -2.566406 1.90625 -2.601562 1.875 -2.625 C 1.851562 -2.644531 1.8125 -2.65625 1.75 -2.65625 C 1.6875 -2.65625 1.628906 -2.640625 1.578125 -2.609375 C 1.535156 -2.578125 1.5 -2.523438 1.46875 -2.453125 C 1.4375 -2.378906 1.410156 -2.28125 1.390625 -2.15625 L 0.953125 0 Z "/>
</g>
<g id="glyph-0-11">
<path d="M 0.046875 1.46875 L 1.015625 -3.328125 L 1.6875 -3.328125 L 1.734375 -2.90625 L 1.78125 -2.90625 C 1.875 -3.007812 1.976562 -3.097656 2.09375 -3.171875 C 2.21875 -3.242188 2.34375 -3.296875 2.46875 -3.328125 C 2.59375 -3.367188 2.722656 -3.390625 2.859375 -3.390625 C 3.078125 -3.390625 3.253906 -3.347656 3.390625 -3.265625 C 3.523438 -3.179688 3.628906 -3.054688 3.703125 -2.890625 C 3.773438 -2.734375 3.8125 -2.550781 3.8125 -2.34375 C 3.820312 -2.132812 3.800781 -1.910156 3.75 -1.671875 C 3.675781 -1.304688 3.5625 -0.992188 3.40625 -0.734375 C 3.25 -0.472656 3.0625 -0.273438 2.84375 -0.140625 C 2.632812 -0.00390625 2.398438 0.0625 2.140625 0.0625 C 2.015625 0.0625 1.894531 0.046875 1.78125 0.015625 C 1.675781 -0.015625 1.578125 -0.0625 1.484375 -0.125 C 1.398438 -0.1875 1.332031 -0.265625 1.28125 -0.359375 L 1.234375 -0.359375 C 1.222656 -0.222656 1.210938 -0.113281 1.203125 -0.03125 C 1.191406 0.0390625 1.1875 0.0859375 1.1875 0.109375 L 0.90625 1.46875 Z M 2.015625 -0.671875 C 2.234375 -0.671875 2.40625 -0.75 2.53125 -0.90625 C 2.664062 -1.070312 2.769531 -1.332031 2.84375 -1.6875 C 2.90625 -2 2.898438 -2.238281 2.828125 -2.40625 C 2.765625 -2.570312 2.625 -2.65625 2.40625 -2.65625 C 2.195312 -2.65625 2.015625 -2.578125 1.859375 -2.421875 C 1.710938 -2.273438 1.613281 -2.0625 1.5625 -1.78125 L 1.546875 -1.6875 C 1.472656 -1.332031 1.476562 -1.070312 1.5625 -0.90625 C 1.65625 -0.75 1.804688 -0.671875 2.015625 -0.671875 Z "/>
</g>
<g id="glyph-0-12">
<path d="M 2.140625 0.0625 C 1.953125 0.0625 1.78125 0.0234375 1.625 -0.046875 C 1.476562 -0.117188 1.363281 -0.222656 1.28125 -0.359375 L 1.21875 -0.359375 L 1.015625 0 L 0.34375 0 L 1.265625 -4.640625 L 2.125 -4.640625 L 1.921875 -3.5625 C 1.898438 -3.5 1.875 -3.410156 1.84375 -3.296875 C 1.820312 -3.179688 1.789062 -3.050781 1.75 -2.90625 L 1.78125 -2.90625 C 1.914062 -3.070312 2.078125 -3.191406 2.265625 -3.265625 C 2.453125 -3.347656 2.648438 -3.390625 2.859375 -3.390625 C 3.066406 -3.390625 3.238281 -3.347656 3.375 -3.265625 C 3.519531 -3.179688 3.628906 -3.054688 3.703125 -2.890625 C 3.773438 -2.734375 3.8125 -2.550781 3.8125 -2.34375 C 3.820312 -2.144531 3.804688 -1.925781 3.765625 -1.6875 C 3.710938 -1.4375 3.640625 -1.203125 3.546875 -0.984375 C 3.453125 -0.773438 3.335938 -0.59375 3.203125 -0.4375 C 3.078125 -0.28125 2.921875 -0.15625 2.734375 -0.0625 C 2.554688 0.0195312 2.359375 0.0625 2.140625 0.0625 Z M 2 -0.671875 C 2.21875 -0.671875 2.394531 -0.753906 2.53125 -0.921875 C 2.675781 -1.097656 2.785156 -1.351562 2.859375 -1.6875 C 2.921875 -2.019531 2.910156 -2.265625 2.828125 -2.421875 C 2.753906 -2.578125 2.609375 -2.65625 2.390625 -2.65625 C 2.191406 -2.65625 2.019531 -2.582031 1.875 -2.4375 C 1.726562 -2.300781 1.617188 -2.050781 1.546875 -1.6875 C 1.472656 -1.34375 1.476562 -1.085938 1.5625 -0.921875 C 1.644531 -0.753906 1.789062 -0.671875 2 -0.671875 Z "/>
</g>
<g id="glyph-0-13">
<path d="M 0.359375 0 L 0.46875 -0.546875 L 1.609375 -0.734375 L 2.25 -3.90625 L 1.390625 -4.09375 L 1.5 -4.640625 L 3.28125 -4.640625 L 2.5 -0.734375 L 3.46875 -0.546875 L 3.359375 0 Z "/>
</g>
<g id="glyph-0-14">
<path d="M 2.125 0.0625 C 1.738281 0.0625 1.421875 -0.00390625 1.171875 -0.140625 C 0.921875 -0.273438 0.75 -0.472656 0.65625 -0.734375 C 0.570312 -0.992188 0.570312 -1.3125 0.65625 -1.6875 C 0.71875 -2.03125 0.832031 -2.328125 1 -2.578125 C 1.175781 -2.835938 1.394531 -3.035156 1.65625 -3.171875 C 1.914062 -3.316406 2.210938 -3.390625 2.546875 -3.390625 C 2.867188 -3.390625 3.128906 -3.328125 3.328125 -3.203125 C 3.523438 -3.085938 3.65625 -2.910156 3.71875 -2.671875 C 3.789062 -2.441406 3.796875 -2.164062 3.734375 -1.84375 L 3.640625 -1.40625 L 1.453125 -1.40625 C 1.421875 -1.25 1.441406 -1.113281 1.515625 -1 C 1.585938 -0.882812 1.695312 -0.800781 1.84375 -0.75 C 1.988281 -0.695312 2.148438 -0.671875 2.328125 -0.671875 C 2.492188 -0.671875 2.664062 -0.6875 2.84375 -0.71875 C 3.03125 -0.757812 3.226562 -0.816406 3.4375 -0.890625 L 3.296875 -0.171875 C 3.109375 -0.0859375 2.910156 -0.03125 2.703125 0 C 2.503906 0.0390625 2.3125 0.0625 2.125 0.0625 Z M 2.96875 -2.015625 C 3 -2.160156 2.992188 -2.285156 2.953125 -2.390625 C 2.921875 -2.492188 2.859375 -2.570312 2.765625 -2.625 C 2.679688 -2.6875 2.578125 -2.71875 2.453125 -2.71875 C 2.265625 -2.71875 2.085938 -2.65625 1.921875 -2.53125 C 1.765625 -2.414062 1.65625 -2.242188 1.59375 -2.015625 Z "/>
</g>
</g>
</defs>
<g fill="rgb(65.882353%, 72.941176%, 78.039216%)" fill-opacity="1">
<use xlink:href="#glyph-0-0" x="30" y="26.532227"/>
<use xlink:href="#glyph-0-1" x="34" y="26.532227"/>
<use xlink:href="#glyph-0-2" x="38" y="26.532227"/>
<use xlink:href="#glyph-0-3" x="42" y="26.532227"/>
<use xlink:href="#glyph-0-4" x="46" y="26.532227"/>
<use xlink:href="#glyph-0-5" x="50" y="26.532227"/>
<use xlink:href="#glyph-0-6" x="54" y="26.532227"/>
<use xlink:href="#glyph-0-1" x="58" y="26.532227"/>
<use xlink:href="#glyph-0-7" x="62" y="26.532227"/>
<use xlink:href="#glyph-0-3" x="66" y="26.532227"/>
<use xlink:href="#glyph-0-8" x="70" y="26.532227"/>
<use xlink:href="#glyph-0-2" x="74" y="26.532227"/>
<use xlink:href="#glyph-0-9" x="78" y="26.532227"/>
<use xlink:href="#glyph-0-0" x="82" y="26.532227"/>
<use xlink:href="#glyph-0-0" x="86" y="26.532227"/>
<use xlink:href="#glyph-0-7" x="90" y="26.532227"/>
<use xlink:href="#glyph-0-4" x="94" y="26.532227"/>
<use xlink:href="#glyph-0-0" x="98" y="26.532227"/>
<use xlink:href="#glyph-0-7" x="102" y="26.532227"/>
<use xlink:href="#glyph-0-4" x="106" y="26.532227"/>
<use xlink:href="#glyph-0-10" x="110" y="26.532227"/>
<use xlink:href="#glyph-0-11" x="114" y="26.532227"/>
<use xlink:href="#glyph-0-9" x="118" y="26.532227"/>
<use xlink:href="#glyph-0-0" x="122" y="26.532227"/>
<use xlink:href="#glyph-0-0" x="126" y="26.532227"/>
<use xlink:href="#glyph-0-4" x="130" y="26.532227"/>
<use xlink:href="#glyph-0-12" x="134" y="26.532227"/>
<use xlink:href="#glyph-0-13" x="138" y="26.532227"/>
<use xlink:href="#glyph-0-14" x="142" y="26.532227"/>
</g>
</svg>
