<?xml version="1.0" encoding="UTF-8"?>
<svg xmlns="http://www.w3.org/2000/svg" xmlns:xlink="http://www.w3.org/1999/xlink" width="1920" height="1080" viewBox="0 0 1920 1080">
<defs>
<g>
<g id="glyph-0-0">
<path d="M 1.703125 0.125 C 2.4375 0.125 2.953125 -0.609375 3.390625 -1.5 L 3.46875 -1.5 C 3.484375 -1.1875 3.46875 -0.9375 3.484375 -0.703125 C 3.515625 -0.203125 3.65625 0.109375 4.109375 0.109375 C 4.875 0.109375 5.140625 -0.609375 5.265625 -0.859375 L 5.109375 -0.96875 C 4.953125 -0.765625 4.796875 -0.609375 4.5 -0.609375 C 3.9375 -0.609375 3.828125 -1.609375 3.828125 -2.296875 C 3.828125 -2.34375 4.21875 -3.015625 4.78125 -4 L 4.984375 -4.34375 L 4.984375 -4.46875 L 4.0625 -4.4375 C 3.9375 -4.109375 3.8125 -3.75 3.625 -3.140625 L 3.5625 -3.140625 C 3.40625 -3.703125 3.15625 -4.515625 2.234375 -4.515625 C 1.109375 -4.515625 0.328125 -3.484375 0.328125 -2.03125 C 0.328125 -0.8125 0.71875 0.125 1.703125 0.125 Z M 1.828125 -0.71875 C 1.328125 -0.71875 0.75 -1.03125 0.75 -2.140625 C 0.75 -3.15625 1.34375 -3.734375 2.234375 -3.734375 C 2.890625 -3.734375 3.34375 -3.421875 3.34375 -2.546875 C 3.34375 -1.875 2.765625 -0.71875 1.828125 -0.71875 Z "/>
</g>
<g id="glyph-0-1">
</g>
<g id="glyph-0-2">
<path d="M 3.578125 0 L 3.578125 -1.484375 L 4.546875 -1.484375 L 4.546875 -2.140625 L 3.578125 -2.140625 L 3.578125 -6.09375 L 3 -6.09375 L 0.125 -2.078125 L 0.125 -1.484375 L 2.734375 -1.484375 L 2.734375 0 Z M 0.640625 -2.1875 L 2.703125 -5.0625 L 2.734375 -5.0625 L 2.734375 -2.140625 L 0.640625 -2.140625 Z "/>
</g>
<g id="glyph-0-3">
<path d="M 2.328125 0.109375 C 3.4375 0.109375 4.234375 -0.421875 4.234375 -1.421875 C 4.234375 -2.171875 3.875 -2.625 2.78125 -3.296875 L 2.78125 -3.328125 C 3.65625 -3.796875 4 -4.109375 4 -4.796875 C 4 -5.546875 3.28125 -6.109375 2.34375 -6.109375 C 1.3125 -6.109375 0.5625 -5.5625 0.5625 -4.703125 C 0.5625 -4.0625 0.765625 -3.6875 1.734375 -3.015625 L 1.734375 -2.984375 C 0.84375 -2.390625 0.4375 -2.09375 0.4375 -1.34375 C 0.4375 -0.375 1.234375 0.109375 2.328125 0.109375 Z M 2.015625 -2.828125 C 3.15625 -2.09375 3.4375 -1.75 3.4375 -1.140625 C 3.4375 -0.5 2.9375 -0.171875 2.359375 -0.171875 C 1.640625 -0.171875 1.171875 -0.5625 1.171875 -1.421875 C 1.171875 -2.0625 1.46875 -2.390625 2.015625 -2.828125 Z M 2.484375 -3.46875 C 1.65625 -3.984375 1.296875 -4.328125 1.296875 -4.875 C 1.296875 -5.453125 1.6875 -5.796875 2.328125 -5.796875 C 2.9375 -5.796875 3.296875 -5.453125 3.296875 -4.828125 C 3.296875 -4.21875 3.109375 -3.84375 2.484375 -3.46875 Z "/>
</g>
<g id="glyph-0-4">
<path d="M 1.140625 0.078125 C 1.515625 0.078125 1.734375 -0.171875 1.734375 -0.46875 C 1.734375 -0.796875 1.515625 -1.078125 1.15625 -1.078125 C 0.796875 -1.078125 0.578125 -0.796875 0.578125 -0.484375 C 0.578125 -0.15625 0.765625 0.078125 1.140625 0.078125 Z "/>
</g>
<g id="glyph-0-5">
<path d="M 4.078125 0 L 4.375 -1.515625 L 4.109375 -1.515625 C 3.890625 -0.9375 3.765625 -0.75 3.265625 -0.75 L 1.953125 -0.75 L 1.296875 -0.71875 L 1.296875 -0.765625 L 2.53125 -1.9375 C 3.546875 -2.953125 4.078125 -3.609375 4.078125 -4.4375 C 4.078125 -5.4375 3.328125 -6.078125 2.265625 -6.078125 C 1.34375 -6.078125 0.703125 -5.546875 0.421875 -4.640625 L 0.640625 -4.546875 C 0.984375 -5.25 1.40625 -5.46875 2.015625 -5.46875 C 2.75 -5.46875 3.203125 -5.015625 3.203125 -4.296875 C 3.203125 -3.3125 2.734375 -2.71875 1.796875 -1.75 L 0.359375 -0.328125 L 0.359375 0 Z "/>
</g>
<g id="glyph-0-6">
<path d="M 1.921875 -3.71875 C 2.75 -3.71875 3.34375 -4.234375 3.34375 -5.15625 C 3.34375 -6.0625 2.75 -6.578125 1.9375 -6.578125 C 1.125 -6.578125 0.46875 -6.09375 0.46875 -5.15625 C 0.46875 -4.234375 1.078125 -3.71875 1.921875 -3.71875 Z M 1.921875 -4.15625 C 1.34375 -4.15625 1 -4.546875 1 -5.15625 C 1 -5.75 1.328125 -6.140625 1.890625 -6.140625 C 2.46875 -6.140625 2.828125 -5.78125 2.828125 -5.15625 C 2.828125 -4.546875 2.484375 -4.15625 1.921875 -4.15625 Z "/>
</g>
<g id="glyph-1-0">
<path d="M 5.921875 -4.59375 C 5.78125 -3.890625 5.46875 -3.25 4.796875 -3.25 C 4.09375 -3.25 3.0625 -4.5 2.140625 -4.5 C 1.1875 -4.5 0.609375 -3.484375 0.5625 -2.515625 L 0.875 -2.515625 C 1.03125 -3.203125 1.390625 -3.84375 2.0625 -3.84375 C 2.75 -3.84375 3.796875 -2.609375 4.71875 -2.609375 C 5.671875 -2.609375 6.1875 -3.765625 6.25 -4.59375 Z M 5.921875 -2.296875 C 5.78125 -1.625 5.46875 -0.96875 4.796875 -0.96875 C 4.09375 -0.96875 3.0625 -2.203125 2.140625 -2.203125 C 1.1875 -2.203125 0.609375 -1.203125 0.5625 -0.234375 L 0.875 -0.234375 C 1.03125 -0.921875 1.390625 -1.578125 2.0625 -1.578125 C 2.75 -1.578125 3.796875 -0.34375 4.71875 -0.34375 C 5.671875 -0.34375 6.1875 -1.484375 6.25 -2.296875 Z "/>
</g>
</g>
</defs>
<g fill="rgb(19.215686%, 87.843137%, 68.627451%)" fill-opacity="1">
<use xlink:href="#glyph-0-0" x="30" y="27.196289"/>
<use xlink:href="#glyph-0-1" x="35" y="27.196289"/>
</g>
<g fill="rgb(19.215686%, 87.843137%, 68.627451%)" fill-opacity="1">
<use xlink:href="#glyph-1-0" x="37" y="27.196289"/>
</g>
<g fill="rgb(19.215686%, 87.843137%, 68.627451%)" fill-opacity="1">
<use xlink:href="#glyph-0-1" x="44" y="27.196289"/>
<use xlink:href="#glyph-0-2" x="46" y="27.196289"/>
<use xlink:href="#glyph-0-3" x="51" y="27.196289"/>
<use xlink:href="#glyph-0-4" x="56" y="27.196289"/>
<use xlink:href="#glyph-0-5" x="58" y="27.196289"/>
<use xlink:href="#glyph-0-6" x="63" y="27.196289"/>
</g>
</svg>
