<?xml version="1.0" encoding="UTF-8"?>
<svg xmlns="http://www.w3.org/2000/svg" xmlns:xlink="http://www.w3.org/1999/xlink" width="1920" height="1080" viewBox="0 0 1920 1080">
<defs>
<g>
<g id="glyph-0-0">
<path d="M 2.359375 0.09375 C 2.015625 0.09375 1.707031 0.0078125 1.4375 -0.15625 C 1.175781 -0.332031 0.96875 -0.609375 0.8125 -0.984375 C 0.65625 -1.367188 0.578125 -1.875 0.578125 -2.5 C 0.578125 -3.125 0.660156 -3.644531 0.828125 -4.0625 C 1.003906 -4.476562 1.242188 -4.789062 1.546875 -5 C 1.847656 -5.207031 2.191406 -5.3125 2.578125 -5.3125 C 2.867188 -5.3125 3.125 -5.253906 3.34375 -5.140625 C 3.5625 -5.035156 3.753906 -4.859375 3.921875 -4.609375 C 4.085938 -4.367188 4.21875 -4.046875 4.3125 -3.640625 L 4.375 -3.640625 L 4.890625 -5.203125 L 5.953125 -5.203125 L 4.5625 -2.421875 C 4.6875 -2.003906 4.789062 -1.671875 4.875 -1.421875 C 4.96875 -1.171875 5.046875 -0.976562 5.109375 -0.84375 C 5.171875 -0.71875 5.234375 -0.632812 5.296875 -0.59375 C 5.359375 -0.550781 5.421875 -0.53125 5.484375 -0.53125 C 5.554688 -0.53125 5.625 -0.546875 5.6875 -0.578125 C 5.75 -0.617188 5.8125 -0.65625 5.875 -0.6875 L 6.03125 -0.28125 C 5.925781 -0.195312 5.800781 -0.117188 5.65625 -0.046875 C 5.507812 0.0234375 5.332031 0.0625 5.125 0.0625 C 4.96875 0.0625 4.832031 0.0351562 4.71875 -0.015625 C 4.613281 -0.0664062 4.523438 -0.148438 4.453125 -0.265625 C 4.378906 -0.390625 4.3125 -0.546875 4.25 -0.734375 C 4.195312 -0.921875 4.140625 -1.148438 4.078125 -1.421875 L 4.046875 -1.421875 C 3.960938 -1.148438 3.84375 -0.898438 3.6875 -0.671875 C 3.53125 -0.441406 3.34375 -0.253906 3.125 -0.109375 C 2.90625 0.0234375 2.648438 0.09375 2.359375 0.09375 Z M 2.421875 -0.53125 C 2.617188 -0.53125 2.785156 -0.566406 2.921875 -0.640625 C 3.066406 -0.722656 3.195312 -0.84375 3.3125 -1 C 3.425781 -1.164062 3.535156 -1.359375 3.640625 -1.578125 C 3.742188 -1.804688 3.847656 -2.066406 3.953125 -2.359375 C 3.828125 -2.859375 3.707031 -3.28125 3.59375 -3.625 C 3.488281 -3.976562 3.359375 -4.242188 3.203125 -4.421875 C 3.046875 -4.609375 2.835938 -4.703125 2.578125 -4.703125 C 2.429688 -4.703125 2.289062 -4.65625 2.15625 -4.5625 C 2.03125 -4.476562 1.921875 -4.347656 1.828125 -4.171875 C 1.734375 -3.992188 1.660156 -3.769531 1.609375 -3.5 C 1.554688 -3.238281 1.53125 -2.929688 1.53125 -2.578125 C 1.53125 -2.117188 1.5625 -1.738281 1.625 -1.4375 C 1.695312 -1.132812 1.800781 -0.90625 1.9375 -0.75 C 2.070312 -0.601562 2.234375 -0.53125 2.421875 -0.53125 Z "/>
</g>
<g id="glyph-0-1">
</g>
<g id="glyph-0-2">
<path d="M 0.625 -4.140625 L 0.625 -4.71875 L 4.796875 -4.71875 L 4.796875 -4.140625 Z M 0.625 -2.21875 L 0.625 -2.796875 L 4.796875 -2.796875 L 4.796875 -2.21875 Z "/>
</g>
<g id="glyph-0-3">
<path d="M 2.09375 0 L 2.09375 -0.40625 L 2.359375 -0.40625 C 2.503906 -0.40625 2.632812 -0.421875 2.75 -0.453125 C 2.875 -0.484375 2.972656 -0.550781 3.046875 -0.65625 C 3.117188 -0.757812 3.15625 -0.910156 3.15625 -1.109375 L 3.15625 -1.90625 L 0.171875 -1.90625 L 0.171875 -2.296875 L 3.171875 -6.9375 L 4.09375 -6.9375 L 4.09375 -2.453125 L 5.296875 -2.453125 L 5.296875 -1.90625 L 4.09375 -1.90625 L 4.09375 -1.109375 C 4.09375 -0.910156 4.128906 -0.757812 4.203125 -0.65625 C 4.273438 -0.550781 4.367188 -0.484375 4.484375 -0.453125 C 4.609375 -0.421875 4.742188 -0.40625 4.890625 -0.40625 L 5.015625 -0.40625 L 5.015625 0 Z M 0.859375 -2.453125 L 3.15625 -2.453125 L 3.15625 -4.25 C 3.15625 -4.4375 3.15625 -4.644531 3.15625 -4.875 C 3.164062 -5.113281 3.175781 -5.351562 3.1875 -5.59375 C 3.195312 -5.832031 3.210938 -6.054688 3.234375 -6.265625 C 3.191406 -6.191406 3.132812 -6.085938 3.0625 -5.953125 C 3 -5.828125 2.921875 -5.6875 2.828125 -5.53125 C 2.734375 -5.382812 2.644531 -5.238281 2.5625 -5.09375 C 2.476562 -4.957031 2.410156 -4.847656 2.359375 -4.765625 Z "/>
</g>
<g id="glyph-0-4">
<path d="M 2.65625 0.09375 C 2.164062 0.09375 1.753906 0.0078125 1.421875 -0.15625 C 1.097656 -0.320312 0.851562 -0.539062 0.6875 -0.8125 C 0.53125 -1.09375 0.453125 -1.398438 0.453125 -1.734375 C 0.453125 -2.046875 0.515625 -2.304688 0.640625 -2.515625 C 0.765625 -2.734375 0.9375 -2.921875 1.15625 -3.078125 C 1.382812 -3.234375 1.640625 -3.378906 1.921875 -3.515625 C 1.679688 -3.660156 1.460938 -3.816406 1.265625 -3.984375 C 1.078125 -4.148438 0.929688 -4.34375 0.828125 -4.5625 C 0.722656 -4.78125 0.671875 -5.023438 0.671875 -5.296875 C 0.671875 -5.597656 0.738281 -5.878906 0.875 -6.140625 C 1.019531 -6.410156 1.242188 -6.625 1.546875 -6.78125 C 1.859375 -6.945312 2.265625 -7.03125 2.765625 -7.03125 C 3.171875 -7.03125 3.515625 -6.957031 3.796875 -6.8125 C 4.085938 -6.675781 4.304688 -6.476562 4.453125 -6.21875 C 4.609375 -5.96875 4.6875 -5.679688 4.6875 -5.359375 C 4.6875 -4.929688 4.566406 -4.597656 4.328125 -4.359375 C 4.085938 -4.128906 3.769531 -3.914062 3.375 -3.71875 C 3.695312 -3.570312 3.976562 -3.40625 4.21875 -3.21875 C 4.457031 -3.039062 4.644531 -2.835938 4.78125 -2.609375 C 4.914062 -2.390625 4.984375 -2.140625 4.984375 -1.859375 C 4.984375 -1.242188 4.769531 -0.765625 4.34375 -0.421875 C 3.925781 -0.078125 3.363281 0.09375 2.65625 0.09375 Z M 2.703125 -0.34375 C 3.117188 -0.34375 3.453125 -0.460938 3.703125 -0.703125 C 3.960938 -0.953125 4.09375 -1.265625 4.09375 -1.640625 C 4.09375 -1.859375 4.035156 -2.054688 3.921875 -2.234375 C 3.816406 -2.421875 3.640625 -2.597656 3.390625 -2.765625 C 3.140625 -2.929688 2.804688 -3.101562 2.390625 -3.28125 C 2.085938 -3.125 1.84375 -2.910156 1.65625 -2.640625 C 1.476562 -2.378906 1.390625 -2.066406 1.390625 -1.703125 C 1.390625 -1.296875 1.5 -0.96875 1.71875 -0.71875 C 1.9375 -0.46875 2.265625 -0.34375 2.703125 -0.34375 Z M 2.890625 -3.953125 C 3.140625 -4.066406 3.328125 -4.191406 3.453125 -4.328125 C 3.585938 -4.460938 3.679688 -4.613281 3.734375 -4.78125 C 3.785156 -4.957031 3.8125 -5.160156 3.8125 -5.390625 C 3.8125 -5.585938 3.773438 -5.773438 3.703125 -5.953125 C 3.640625 -6.140625 3.523438 -6.289062 3.359375 -6.40625 C 3.203125 -6.519531 2.988281 -6.578125 2.71875 -6.578125 C 2.351562 -6.578125 2.070312 -6.46875 1.875 -6.25 C 1.675781 -6.03125 1.578125 -5.75 1.578125 -5.40625 C 1.578125 -5.175781 1.625 -4.976562 1.71875 -4.8125 C 1.820312 -4.644531 1.96875 -4.492188 2.15625 -4.359375 C 2.351562 -4.222656 2.597656 -4.085938 2.890625 -3.953125 Z "/>
</g>
<g id="glyph-0-5">
<path d="M 1.21875 0.0625 C 1.050781 0.0625 0.90625 0.015625 0.78125 -0.078125 C 0.664062 -0.171875 0.609375 -0.34375 0.609375 -0.59375 C 0.609375 -0.84375 0.664062 -1.015625 0.78125 -1.109375 C 0.90625 -1.203125 1.050781 -1.25 1.21875 -1.25 C 1.382812 -1.25 1.523438 -1.203125 1.640625 -1.109375 C 1.765625 -1.015625 1.828125 -0.84375 1.828125 -0.59375 C 1.828125 -0.34375 1.765625 -0.171875 1.640625 -0.078125 C 1.523438 0.015625 1.382812 0.0625 1.21875 0.0625 Z "/>
</g>
<g id="glyph-0-6">
<path d="M 0.59375 0 L 0.59375 -0.703125 L 2.21875 -2.578125 C 2.5625 -2.984375 2.832031 -3.332031 3.03125 -3.625 C 3.226562 -3.925781 3.367188 -4.207031 3.453125 -4.46875 C 3.546875 -4.738281 3.59375 -5.019531 3.59375 -5.3125 C 3.59375 -5.5625 3.554688 -5.773438 3.484375 -5.953125 C 3.410156 -6.140625 3.300781 -6.285156 3.15625 -6.390625 C 3.007812 -6.492188 2.828125 -6.546875 2.609375 -6.546875 C 2.316406 -6.546875 2.09375 -6.476562 1.9375 -6.34375 C 1.78125 -6.207031 1.671875 -6.03125 1.609375 -5.8125 C 1.554688 -5.59375 1.53125 -5.359375 1.53125 -5.109375 C 1.375 -5.109375 1.234375 -5.125 1.109375 -5.15625 C 0.984375 -5.1875 0.882812 -5.25 0.8125 -5.34375 C 0.738281 -5.4375 0.703125 -5.566406 0.703125 -5.734375 C 0.703125 -5.984375 0.769531 -6.207031 0.90625 -6.40625 C 1.050781 -6.601562 1.265625 -6.753906 1.546875 -6.859375 C 1.835938 -6.972656 2.191406 -7.03125 2.609375 -7.03125 C 3.015625 -7.03125 3.363281 -6.960938 3.65625 -6.828125 C 3.945312 -6.703125 4.171875 -6.515625 4.328125 -6.265625 C 4.492188 -6.023438 4.578125 -5.738281 4.578125 -5.40625 C 4.578125 -5.1875 4.539062 -4.96875 4.46875 -4.75 C 4.394531 -4.53125 4.285156 -4.304688 4.140625 -4.078125 C 4.003906 -3.859375 3.832031 -3.625 3.625 -3.375 C 3.425781 -3.132812 3.203125 -2.875 2.953125 -2.59375 L 1.3125 -0.78125 L 3.5625 -0.78125 C 3.851562 -0.78125 4.050781 -0.851562 4.15625 -1 C 4.257812 -1.144531 4.332031 -1.3125 4.375 -1.5 L 4.40625 -1.6875 L 4.828125 -1.6875 L 4.765625 0 Z "/>
</g>
<g id="glyph-0-7">
<path d="M 1.9375 -4.109375 C 1.5 -4.109375 1.144531 -4.242188 0.875 -4.515625 C 0.601562 -4.785156 0.46875 -5.140625 0.46875 -5.578125 C 0.46875 -5.867188 0.523438 -6.125 0.640625 -6.34375 C 0.765625 -6.5625 0.9375 -6.734375 1.15625 -6.859375 C 1.382812 -6.992188 1.644531 -7.0625 1.9375 -7.0625 C 2.226562 -7.0625 2.484375 -6.992188 2.703125 -6.859375 C 2.929688 -6.734375 3.101562 -6.5625 3.21875 -6.34375 C 3.34375 -6.125 3.40625 -5.867188 3.40625 -5.578125 C 3.40625 -5.285156 3.34375 -5.03125 3.21875 -4.8125 C 3.101562 -4.59375 2.929688 -4.421875 2.703125 -4.296875 C 2.484375 -4.171875 2.226562 -4.109375 1.9375 -4.109375 Z M 1.9375 -4.6875 C 2.207031 -4.6875 2.414062 -4.765625 2.5625 -4.921875 C 2.707031 -5.085938 2.78125 -5.304688 2.78125 -5.578125 C 2.78125 -5.859375 2.703125 -6.078125 2.546875 -6.234375 C 2.398438 -6.398438 2.195312 -6.484375 1.9375 -6.484375 C 1.6875 -6.484375 1.484375 -6.398438 1.328125 -6.234375 C 1.179688 -6.078125 1.109375 -5.859375 1.109375 -5.578125 C 1.109375 -5.304688 1.179688 -5.085938 1.328125 -4.921875 C 1.484375 -4.765625 1.6875 -4.6875 1.9375 -4.6875 Z "/>
</g>
</g>
</defs>
<g fill="rgb(95.686275%, 97.254902%, 98.431373%)" fill-opacity="1">
<use xlink:href="#glyph-0-0" x="30" y="30.393555"/>
<use xlink:href="#glyph-0-1" x="36" y="30.393555"/>
<use xlink:href="#glyph-0-2" x="39" y="30.393555"/>
<use xlink:href="#glyph-0-1" x="44" y="30.393555"/>
<use xlink:href="#glyph-0-3" x="47" y="30.393555"/>
<use xlink:href="#glyph-0-4" x="52" y="30.393555"/>
<use xlink:href="#glyph-0-5" x="57" y="30.393555"/>
<use xlink:href="#glyph-0-6" x="59" y="30.393555"/>
<use xlink:href="#glyph-0-7" x="64" y="30.393555"/>
</g>
</svg>
