<?xml version="1.0" encoding="UTF-8"?>
<svg xmlns="http://www.w3.org/2000/svg" xmlns:xlink="http://www.w3.org/1999/xlink" width="1920" height="1080" viewBox="0 0 1920 1080">
<defs>
<g>
<g id="glyph-0-0">
<path d="M 3 -1.546875 C 3 -0.472656 2.617188 0.0625 1.859375 0.0625 C 1.628906 0.0625 1.4375 0.0195312 1.28125 -0.0625 C 1.125 -0.15625 1 -0.296875 0.90625 -0.484375 C 0.90625 -0.421875 0.898438 -0.328125 0.890625 -0.203125 C 0.878906 -0.0859375 0.875 -0.0195312 0.875 0 L 0.375 0 C 0.382812 -0.101562 0.390625 -0.316406 0.390625 -0.640625 L 0.390625 -4.21875 L 0.90625 -4.21875 L 0.90625 -3.015625 C 0.90625 -2.890625 0.898438 -2.742188 0.890625 -2.578125 L 0.90625 -2.578125 C 1 -2.773438 1.125 -2.914062 1.28125 -3 C 1.4375 -3.09375 1.628906 -3.140625 1.859375 -3.140625 C 2.253906 -3.140625 2.539062 -3.003906 2.71875 -2.734375 C 2.90625 -2.472656 3 -2.078125 3 -1.546875 Z M 2.453125 -1.53125 C 2.453125 -1.96875 2.394531 -2.273438 2.28125 -2.453125 C 2.175781 -2.640625 1.992188 -2.734375 1.734375 -2.734375 C 1.441406 -2.734375 1.226562 -2.632812 1.09375 -2.4375 C 0.96875 -2.25 0.90625 -1.9375 0.90625 -1.5 C 0.90625 -1.101562 0.96875 -0.804688 1.09375 -0.609375 C 1.226562 -0.421875 1.441406 -0.328125 1.734375 -0.328125 C 1.984375 -0.328125 2.164062 -0.421875 2.28125 -0.609375 C 2.394531 -0.796875 2.453125 -1.101562 2.453125 -1.53125 Z "/>
</g>
<g id="glyph-0-1">
<path d="M 3 -1.546875 C 3 -1.003906 2.878906 -0.597656 2.640625 -0.328125 C 2.398438 -0.0664062 2.054688 0.0625 1.609375 0.0625 C 1.160156 0.0625 0.820312 -0.0703125 0.59375 -0.34375 C 0.363281 -0.625 0.25 -1.023438 0.25 -1.546875 C 0.25 -2.609375 0.707031 -3.140625 1.625 -3.140625 C 2.09375 -3.140625 2.4375 -3.007812 2.65625 -2.75 C 2.882812 -2.488281 3 -2.085938 3 -1.546875 Z M 2.453125 -1.546875 C 2.453125 -1.972656 2.390625 -2.28125 2.265625 -2.46875 C 2.140625 -2.65625 1.929688 -2.75 1.640625 -2.75 C 1.335938 -2.75 1.117188 -2.648438 0.984375 -2.453125 C 0.847656 -2.265625 0.78125 -1.960938 0.78125 -1.546875 C 0.78125 -1.140625 0.84375 -0.832031 0.96875 -0.625 C 1.101562 -0.425781 1.316406 -0.328125 1.609375 -0.328125 C 1.910156 -0.328125 2.125 -0.421875 2.25 -0.609375 C 2.382812 -0.804688 2.453125 -1.117188 2.453125 -1.546875 Z "/>
</g>
<g id="glyph-0-2">
<path d="M 1.171875 0.0625 C 0.867188 0.0625 0.640625 -0.0195312 0.484375 -0.1875 C 0.328125 -0.351562 0.25 -0.578125 0.25 -0.859375 C 0.25 -1.179688 0.351562 -1.425781 0.5625 -1.59375 C 0.769531 -1.757812 1.109375 -1.847656 1.578125 -1.859375 L 2.265625 -1.875 L 2.265625 -2.046875 C 2.265625 -2.296875 2.210938 -2.472656 2.109375 -2.578125 C 2.003906 -2.691406 1.835938 -2.75 1.609375 -2.75 C 1.378906 -2.75 1.210938 -2.707031 1.109375 -2.625 C 1.003906 -2.550781 0.941406 -2.425781 0.921875 -2.25 L 0.390625 -2.3125 C 0.472656 -2.863281 0.882812 -3.140625 1.625 -3.140625 C 2.007812 -3.140625 2.296875 -3.050781 2.484375 -2.875 C 2.679688 -2.695312 2.78125 -2.4375 2.78125 -2.09375 L 2.78125 -0.78125 C 2.78125 -0.625 2.800781 -0.503906 2.84375 -0.421875 C 2.882812 -0.347656 2.960938 -0.3125 3.078125 -0.3125 C 3.117188 -0.3125 3.171875 -0.316406 3.234375 -0.328125 L 3.234375 -0.015625 C 3.109375 0.015625 2.976562 0.03125 2.84375 0.03125 C 2.65625 0.03125 2.515625 -0.015625 2.421875 -0.109375 C 2.335938 -0.210938 2.289062 -0.375 2.28125 -0.59375 L 2.265625 -0.59375 C 2.140625 -0.351562 1.988281 -0.179688 1.8125 -0.078125 C 1.632812 0.015625 1.421875 0.0625 1.171875 0.0625 Z M 1.296875 -0.328125 C 1.484375 -0.328125 1.648438 -0.367188 1.796875 -0.453125 C 1.941406 -0.535156 2.054688 -0.648438 2.140625 -0.796875 C 2.222656 -0.953125 2.265625 -1.109375 2.265625 -1.265625 L 2.265625 -1.515625 L 1.703125 -1.515625 C 1.460938 -1.503906 1.28125 -1.472656 1.15625 -1.421875 C 1.03125 -1.378906 0.9375 -1.3125 0.875 -1.21875 C 0.8125 -1.125 0.78125 -1 0.78125 -0.84375 C 0.78125 -0.675781 0.820312 -0.546875 0.90625 -0.453125 C 1 -0.367188 1.128906 -0.328125 1.296875 -0.328125 Z "/>
</g>
<g id="glyph-0-3">
<path d="M 1.578125 -0.015625 C 1.410156 0.0234375 1.238281 0.046875 1.0625 0.046875 C 0.644531 0.046875 0.4375 -0.1875 0.4375 -0.65625 L 0.4375 -2.703125 L 0.09375 -2.703125 L 0.09375 -3.078125 L 0.46875 -3.078125 L 0.609375 -3.765625 L 0.953125 -3.765625 L 0.953125 -3.078125 L 1.53125 -3.078125 L 1.53125 -2.703125 L 0.953125 -2.703125 L 0.953125 -0.765625 C 0.953125 -0.617188 0.972656 -0.515625 1.015625 -0.453125 C 1.066406 -0.390625 1.15625 -0.359375 1.28125 -0.359375 C 1.351562 -0.359375 1.453125 -0.375 1.578125 -0.40625 Z "/>
</g>
<g id="glyph-0-4">
</g>
<g id="glyph-0-5">
<path d="M 0.90625 -2.546875 C 1.007812 -2.753906 1.140625 -2.90625 1.296875 -3 C 1.453125 -3.09375 1.648438 -3.140625 1.890625 -3.140625 C 2.222656 -3.140625 2.46875 -3.054688 2.625 -2.890625 C 2.78125 -2.722656 2.859375 -2.441406 2.859375 -2.046875 L 2.859375 0 L 2.34375 0 L 2.34375 -1.953125 C 2.34375 -2.171875 2.320312 -2.332031 2.28125 -2.4375 C 2.25 -2.539062 2.1875 -2.613281 2.09375 -2.65625 C 2 -2.707031 1.875 -2.734375 1.71875 -2.734375 C 1.476562 -2.734375 1.285156 -2.648438 1.140625 -2.484375 C 0.992188 -2.316406 0.921875 -2.09375 0.921875 -1.8125 L 0.921875 0 L 0.40625 0 L 0.40625 -4.21875 L 0.921875 -4.21875 L 0.921875 -3.125 C 0.921875 -3.007812 0.914062 -2.890625 0.90625 -2.765625 C 0.894531 -2.640625 0.890625 -2.566406 0.890625 -2.546875 Z "/>
</g>
<g id="glyph-0-6">
<path d="M 0.40625 0 L 0.40625 -2.359375 C 0.40625 -2.578125 0.398438 -2.816406 0.390625 -3.078125 L 0.875 -3.078125 C 0.882812 -2.734375 0.890625 -2.523438 0.890625 -2.453125 L 0.90625 -2.453125 C 0.988281 -2.710938 1.082031 -2.890625 1.1875 -2.984375 C 1.289062 -3.085938 1.441406 -3.140625 1.640625 -3.140625 C 1.703125 -3.140625 1.769531 -3.128906 1.84375 -3.109375 L 1.84375 -2.640625 C 1.769531 -2.660156 1.679688 -2.671875 1.578125 -2.671875 C 1.359375 -2.671875 1.191406 -2.578125 1.078125 -2.390625 C 0.972656 -2.210938 0.921875 -1.953125 0.921875 -1.609375 L 0.921875 0 Z "/>
</g>
<g id="glyph-0-7">
<path d="M 0.890625 -3.078125 L 0.890625 -1.125 C 0.890625 -0.925781 0.910156 -0.769531 0.953125 -0.65625 C 0.992188 -0.539062 1.054688 -0.457031 1.140625 -0.40625 C 1.234375 -0.363281 1.363281 -0.34375 1.53125 -0.34375 C 1.769531 -0.34375 1.960938 -0.425781 2.109375 -0.59375 C 2.253906 -0.757812 2.328125 -0.992188 2.328125 -1.296875 L 2.328125 -3.078125 L 2.84375 -3.078125 L 2.84375 -0.65625 C 2.84375 -0.300781 2.847656 -0.0820312 2.859375 0 L 2.375 0 C 2.375 -0.0078125 2.367188 -0.0351562 2.359375 -0.078125 C 2.359375 -0.117188 2.359375 -0.164062 2.359375 -0.21875 C 2.359375 -0.269531 2.351562 -0.375 2.34375 -0.53125 C 2.21875 -0.3125 2.078125 -0.15625 1.921875 -0.0625 C 1.773438 0.0195312 1.585938 0.0625 1.359375 0.0625 C 1.015625 0.0625 0.765625 -0.0195312 0.609375 -0.1875 C 0.453125 -0.363281 0.375 -0.644531 0.375 -1.03125 L 0.375 -3.078125 Z "/>
</g>
<g id="glyph-0-8">
<path d="M 1.5625 1.203125 C 1.226562 1.203125 0.957031 1.132812 0.75 1 C 0.550781 0.875 0.425781 0.691406 0.375 0.453125 L 0.890625 0.375 C 0.921875 0.519531 0.992188 0.628906 1.109375 0.703125 C 1.234375 0.773438 1.390625 0.8125 1.578125 0.8125 C 2.085938 0.8125 2.34375 0.515625 2.34375 -0.078125 L 2.34375 -0.578125 L 2.328125 -0.578125 C 2.234375 -0.378906 2.101562 -0.226562 1.9375 -0.125 C 1.769531 -0.03125 1.570312 0.015625 1.34375 0.015625 C 0.96875 0.015625 0.691406 -0.109375 0.515625 -0.359375 C 0.335938 -0.609375 0.25 -1 0.25 -1.53125 C 0.25 -2.070312 0.34375 -2.472656 0.53125 -2.734375 C 0.71875 -2.992188 1.007812 -3.125 1.40625 -3.125 C 1.625 -3.125 1.8125 -3.070312 1.96875 -2.96875 C 2.125 -2.875 2.25 -2.734375 2.34375 -2.546875 C 2.34375 -2.609375 2.347656 -2.707031 2.359375 -2.84375 C 2.367188 -2.988281 2.375 -3.066406 2.375 -3.078125 L 2.859375 -3.078125 C 2.847656 -2.972656 2.84375 -2.757812 2.84375 -2.4375 L 2.84375 -0.09375 C 2.84375 0.769531 2.414062 1.203125 1.5625 1.203125 Z M 2.34375 -1.546875 C 2.34375 -1.796875 2.304688 -2.007812 2.234375 -2.1875 C 2.171875 -2.363281 2.078125 -2.5 1.953125 -2.59375 C 1.828125 -2.695312 1.6875 -2.75 1.53125 -2.75 C 1.257812 -2.75 1.066406 -2.648438 0.953125 -2.453125 C 0.835938 -2.265625 0.78125 -1.960938 0.78125 -1.546875 C 0.78125 -1.117188 0.832031 -0.8125 0.9375 -0.625 C 1.050781 -0.445312 1.242188 -0.359375 1.515625 -0.359375 C 1.679688 -0.359375 1.828125 -0.40625 1.953125 -0.5 C 2.078125 -0.59375 2.171875 -0.726562 2.234375 -0.90625 C 2.304688 -1.082031 2.34375 -1.296875 2.34375 -1.546875 Z "/>
</g>
<g id="glyph-0-9">
<path d="M 3.34375 0 L 2.75 0 L 2.203125 -2.171875 L 2.109375 -2.65625 C 2.085938 -2.570312 2.054688 -2.445312 2.015625 -2.28125 C 1.984375 -2.125 1.796875 -1.363281 1.453125 0 L 0.859375 0 L -0.015625 -3.078125 L 0.5 -3.078125 L 1.015625 -0.984375 C 1.023438 -0.941406 1.066406 -0.753906 1.140625 -0.421875 L 1.1875 -0.640625 L 1.828125 -3.078125 L 2.375 -3.078125 L 2.921875 -0.96875 L 3.046875 -0.421875 L 3.140625 -0.8125 L 3.71875 -3.078125 L 4.21875 -3.078125 Z "/>
</g>
<g id="glyph-0-10">
<path d="M 0.78125 -1.4375 C 0.78125 -1.082031 0.851562 -0.804688 1 -0.609375 C 1.144531 -0.421875 1.359375 -0.328125 1.640625 -0.328125 C 1.867188 -0.328125 2.046875 -0.367188 2.171875 -0.453125 C 2.304688 -0.546875 2.398438 -0.660156 2.453125 -0.796875 L 2.90625 -0.671875 C 2.71875 -0.179688 2.296875 0.0625 1.640625 0.0625 C 1.191406 0.0625 0.847656 -0.0703125 0.609375 -0.34375 C 0.367188 -0.613281 0.25 -1.019531 0.25 -1.5625 C 0.25 -2.070312 0.367188 -2.460938 0.609375 -2.734375 C 0.847656 -3.003906 1.1875 -3.140625 1.625 -3.140625 C 2.53125 -3.140625 2.984375 -2.59375 2.984375 -1.5 L 2.984375 -1.4375 Z M 2.453125 -1.828125 C 2.421875 -2.148438 2.335938 -2.382812 2.203125 -2.53125 C 2.066406 -2.675781 1.867188 -2.75 1.609375 -2.75 C 1.367188 -2.75 1.175781 -2.664062 1.03125 -2.5 C 0.882812 -2.34375 0.804688 -2.117188 0.796875 -1.828125 Z "/>
</g>
</g>
</defs>
<g fill="rgb(38.039216%, 83.137255%, 96.078431%)" fill-opacity="1">
<use xlink:href="#glyph-0-0" x="30" y="25.280273"/>
<use xlink:href="#glyph-0-1" x="33" y="25.280273"/>
<use xlink:href="#glyph-0-2" x="36" y="25.280273"/>
<use xlink:href="#glyph-0-3" x="39" y="25.280273"/>
<use xlink:href="#glyph-0-4" x="41" y="25.280273"/>
<use xlink:href="#glyph-0-3" x="43" y="25.280273"/>
<use xlink:href="#glyph-0-5" x="45" y="25.280273"/>
<use xlink:href="#glyph-0-6" x="48" y="25.280273"/>
<use xlink:href="#glyph-0-1" x="50" y="25.280273"/>
<use xlink:href="#glyph-0-7" x="53" y="25.280273"/>
<use xlink:href="#glyph-0-8" x="56" y="25.280273"/>
<use xlink:href="#glyph-0-5" x="59" y="25.280273"/>
<use xlink:href="#glyph-0-4" x="62" y="25.280273"/>
<use xlink:href="#glyph-0-9" x="64" y="25.280273"/>
<use xlink:href="#glyph-0-2" x="68" y="25.280273"/>
<use xlink:href="#glyph-0-3" x="71" y="25.280273"/>
<use xlink:href="#glyph-0-10" x="73" y="25.280273"/>
<use xlink:href="#glyph-0-6" x="76" y="25.280273"/>
</g>
</svg>
